<svg xmlns="http://www.w3.org/2000/svg" xmlns:xlink="http://www.w3.org/1999/xlink" viewBox="0 0 490 270">
  <defs>
    <clipPath id="clip-path">
      <rect id="Rectangle_14" data-name="Rectangle 14" width="490" height="270" fill="#fff" stroke="#707070" stroke-width="1"/>
    </clipPath>
  </defs>
  <g id="Mask_Group_3" data-name="Mask Group 3" clip-path="url(#clip-path)">
    <path id="Path_3" data-name="Path 3" d="M58.688-14.017,62.749,0h34.06l-31.7-91.7H32.357L.655,0H33.143L37.2-14.017ZM53.055-37.335H42.706L47.946-56.2Zm80.434,9.825c0,1.31-.917,2.227-2.62,2.227-4.061,0-8.777-3.93-12.183-9.694L94.975-22.139C98.381-12.707,109.385,1.7,131.262,1.7S167.025-9.825,167.025-27.9c0-25.807-35.894-27.9-35.894-36.549a2.463,2.463,0,0,1,2.751-2.358c4.192,0,8.122,4.323,10.087,8.384l23.318-13.362C164.8-79.648,153.139-93.4,132.179-93.4c-20.567,0-34.453,11.528-34.453,29.213C97.726-37.073,133.489-35.894,133.489-27.51ZM173.051,0h33.274V-32.881h19.388V0h33.274V-91.7H225.713v33.012H206.325V-91.7H173.051Zm93.8,0h57.247V-25.807h-24.1V-34.06h21.484V-58.295H299.99v-7.6h24.1V-91.7H266.847ZM58.688,75.983,62.749,90h34.06L65.107-1.7H32.357L.655,90H33.143L37.2,75.983ZM53.055,52.665H42.706L47.946,33.8ZM98.774,90h41.789c19.912,0,33.667-10.087,33.667-28.689a22.5,22.5,0,0,0-11.266-19.257c6.681-4.585,9.432-10.48,9.432-17.947C172.4,8.78,159.427-1.7,138.467-1.7H98.774Zm31.964-56.985V22.8H136.5a5.111,5.111,0,1,1,0,10.218Zm0,32.357V53.058H136.5a6.157,6.157,0,0,1,0,12.314ZM177.636,90h41.789c19.912,0,33.667-10.087,33.667-28.689a22.5,22.5,0,0,0-11.266-19.257c6.681-4.585,9.432-10.48,9.432-17.947C251.258,8.78,238.289-1.7,217.329-1.7H177.636ZM209.6,33.015V22.8h5.764a5.111,5.111,0,1,1,0,10.218Zm0,32.357V53.058h5.764a6.157,6.157,0,1,1,0,12.314ZM304.313,91.7c31.309,0,50.7-20.829,50.7-47.684,0-26.462-19.388-47.422-50.7-47.422s-50.7,20.96-50.7,47.422C253.616,70.874,273,91.7,304.313,91.7Zm0-67.727c10.218,0,15.982,8.515,15.982,20.043,0,11.921-5.764,20.305-15.982,20.305-10.349,0-15.982-8.384-15.982-20.305C288.331,32.491,293.964,23.976,304.313,23.976ZM372.04,90h33.274V24.107h18.078V-1.7h-69.3V24.107H372.04Zm73.1,0h33.274V24.107H496.49V-1.7h-69.3V24.107h17.947ZM3.93,180H36.68C67.465,180,87.9,162.315,87.9,134.019,87.9,105.33,67.2,88.3,36.68,88.3H3.93Zm32.226-65.5h1.965c9.563,0,15.851,6.157,15.851,19.519S47.684,153.8,38.121,153.8H36.156ZM95.237,180h33.274V88.3H95.237Zm43.492,0h41.789c19.912,0,33.667-10.087,33.667-28.689a22.5,22.5,0,0,0-11.266-19.257c6.681-4.585,9.432-10.48,9.432-17.947,0-15.327-12.969-25.807-33.929-25.807H138.729Zm31.964-56.985V112.8h5.764a5.111,5.111,0,1,1,0,10.218Zm0,32.357V143.058h5.764a6.157,6.157,0,0,1,0,12.314ZM222.569,180h58.426V154.193H255.843V88.3H222.569Zm121.175-14.017L347.8,180h34.06l-31.7-91.7h-32.75l-31.7,91.7H318.2l4.061-14.017Zm-5.633-23.318H327.762L333,123.8ZM420.9,152.49c0,1.31-.917,2.227-2.62,2.227-4.061,0-8.777-3.93-12.183-9.694l-23.711,12.838c3.406,9.432,14.41,23.842,36.287,23.842s35.763-11.528,35.763-29.606c0-25.807-35.894-27.9-35.894-36.549a2.463,2.463,0,0,1,2.751-2.358c4.192,0,8.122,4.323,10.087,8.384L454.7,108.212c-2.489-7.86-14.148-21.615-35.108-21.615-20.567,0-34.453,11.528-34.453,29.213C385.14,142.927,420.9,144.106,420.9,152.49ZM462.823,180H496.1V88.3H462.823Z" transform="translate(-4 91)"/>
  </g>
</svg>
