<?xml version="1.0" encoding="UTF-8"?><svg xmlns="http://www.w3.org/2000/svg" viewBox="0 0 72.31 95.1"><defs><style>.e{fill:#fff;}</style></defs><g id="a"/><g id="b"><g id="c"><path id="d" class="e" d="M38.51,65.89c0,1.31-.92,2.23-2.62,2.23-4.06,0-8.78-3.93-12.18-9.69L0,71.26c3.41,9.43,14.41,23.84,36.29,23.84s35.76-11.52,35.76-29.6c0-25.81-35.89-27.9-35.89-36.55,.05-1.36,1.19-2.42,2.55-2.37,.07,0,.13,0,.2,.02,4.19,0,8.12,4.32,10.09,8.38l23.32-13.37C69.82,13.75,58.16,0,37.2,0S2.75,11.53,2.75,29.21c0,27.12,35.76,28.3,35.76,36.68Z"/></g></g></svg>